<svg viewBox="0 0 251 90" xmlns="http://www.w3.org/2000/svg">
<g clip-path="url(#clip0_739_722)">
<path d="M145.51 38.4404C145.51 39.2276 145.995 39.591 146.54 39.591C147.025 39.591 147.57 39.2276 147.57 38.4404V23.6638L163.8 1.98339C164.89 0.772197 163.376 -0.438995 162.286 0.772205L146.54 21.9681L130.734 0.772205C129.644 -0.438985 128.19 0.772197 129.22 1.98339L145.511 23.6638L145.51 38.4404Z" />
<path d="M187.781 40.0754C198.319 40.0754 207.403 31.1126 207.039 19.4245C206.797 10.0378 200.257 1.7411 190.688 0.2271C188.569 -0.0757 186.267 -0.0757 184.148 0.2271C174.64 1.74109 168.826 10.0378 168.523 19.4245C168.22 31.1126 177.304 40.0754 187.781 40.0754ZM184.45 2.16501C186.388 1.86221 188.447 1.86221 190.385 2.16501C198.985 3.49732 204.798 11.0067 205.041 19.4851C205.344 29.9014 197.229 38.1981 187.781 38.1981C178.394 38.1981 170.279 29.9014 170.582 19.4851C170.824 11.0067 175.912 3.49733 184.45 2.16501Z" />
<path d="M248.886 22.392C248.886 42.8612 217.879 42.8612 217.879 22.392C217.879 15.1249 217.879 8.5844 217.879 1.31723C217.879 -0.0150788 215.941 -0.0150657 215.941 1.25668C215.941 8.58441 215.941 15.1249 215.941 22.392C215.941 45.5258 250.884 45.5258 250.884 22.392C250.884 15.1249 250.884 8.58441 250.884 1.25668C250.884 -0.0150657 248.886 -0.0150788 248.886 1.31723C248.886 8.5844 248.886 15.1249 248.886 22.392Z" />
<path d="M161.751 78.1345C161.751 72.5541 157.91 69.5539 152.87 68.5338C156.71 67.3337 158.871 64.5135 158.871 60.6732C158.871 52.5726 149.57 50.8325 144.47 50.8325H129.948C129.348 50.8325 128.868 51.3125 128.868 51.9126C128.868 63.9134 128.868 75.9143 128.868 87.9152C128.868 88.5152 129.348 88.9952 129.948 88.9952C135.469 88.9952 140.989 88.9952 146.51 88.9952C153.89 88.9952 161.751 86.6551 161.751 78.1345ZM144.47 52.6326C148.55 52.6926 156.77 54.1928 156.77 60.6732C156.77 66.2536 151.43 67.9937 145.25 67.9937H130.909V52.6326H144.47ZM148.43 69.9139C154.67 69.9139 159.651 72.2541 159.651 78.1345C159.651 85.515 152.81 87.1951 146.51 87.1951C141.289 87.1951 136.069 87.1951 130.909 87.1951V69.9139H148.43Z" />
<path d="M188.153 89.7152C198.593 89.7152 207.594 80.8346 207.234 69.2538C206.994 59.9531 200.514 51.7326 191.033 50.2325C188.933 49.9324 186.653 49.9324 184.552 50.2325C175.132 51.7326 169.371 59.9531 169.071 69.2538C168.771 80.8346 177.772 89.7152 188.153 89.7152ZM184.852 52.1526C186.773 51.8526 188.813 51.8526 190.733 52.1526C199.253 53.4727 205.014 60.9132 205.254 69.3138C205.554 79.6346 197.513 87.8551 188.153 87.8551C178.852 87.8551 170.811 79.6346 171.111 69.3138C171.351 60.9132 176.392 53.4727 184.852 52.1526Z" />
<path d="M248.697 72.194C248.697 92.4754 217.975 92.4754 217.975 72.194C217.975 64.9935 217.975 58.513 217.975 51.3125C217.975 49.9924 216.055 49.9924 216.055 51.2525C216.055 58.513 216.055 64.9935 216.055 72.194C216.055 95.1156 250.677 95.1156 250.677 72.194C250.677 64.9935 250.677 58.513 250.677 51.2525C250.677 49.9924 248.697 49.9924 248.697 51.3125C248.697 58.513 248.697 64.9935 248.697 72.194Z" />
<path d="M33.0614 89.7152H57.2958V52.802L86.9868 1.28394L85.5424 0.481476L56.3328 51.1971L24.2343 0H0L33.0614 52.802V89.7152Z" />
<path d="M103.739 89.7152V0H104.761V89.7152H103.739Z" />
</g>
<defs>
<clipPath id="clip0_739_722">
<rect/>
</clipPath>
</defs>
</svg>